<svg xmlns="http://www.w3.org/2000/svg"  viewBox="0 0 64 64" width="64px" height="64px"><ellipse cx="32" cy="61" opacity=".3" rx="15" ry="3"/><path fill="#ffce29" d="M51,24c0-11.217-9.719-20.163-21.196-18.877c-8.792,0.985-15.846,8.153-16.71,16.958	c-0.696,7.094,2.516,13.476,7.735,17.273C23.463,41.27,25,42.346,25,45.603V49h14v-3.395c0-3.229,1.487-4.316,4.106-6.205	C47.886,35.953,51,30.344,51,24z"/><path fill="none" stroke="#fff" stroke-linecap="round" stroke-linejoin="round" stroke-miterlimit="10" stroke-width="3" d="M18.445,17.551c0.724-1.52,1.698-2.9,2.868-4.088s2.535-2.181,4.043-2.927"/><polyline fill="none" stroke="orange" stroke-linecap="round" stroke-linejoin="round" stroke-miterlimit="10" stroke-width="4" points="32,47.5 32,30.5 39,27"/><path fill="#9c34c2" d="M32,56L32,56c-3.866,0-7-3.134-7-7v-4h14v4C39,52.866,35.866,56,32,56z"/><line x1="25" x2="32" y1="27" y2="30.5" fill="none" stroke="orange" stroke-linecap="round" stroke-linejoin="round" stroke-miterlimit="10" stroke-width="4"/><path d="M51,24c0-1.707-0.228-3.361-0.65-4.934C47.899,19.387,46,21.461,46,24 c0,4.476-2.175,8.717-5.817,11.345C36.312,38.135,34,40.719,34,45.605V49c0,1.103-0.897,2-2,2c-2.131,0-3.937,1.338-4.657,3.215 C28.581,55.322,30.209,56,32,56c3.866,0,7-3.134,7-7v-3.395c0-3.229,1.487-4.316,4.106-6.205C47.886,35.953,51,30.344,51,24z" opacity=".15"/><path fill="#fff" d="M30.361,10.092c2.527-0.283,4.379-2.408,4.419-4.885 c-1.603-0.235-3.269-0.275-4.976-0.084c-8.792,0.985-15.846,8.153-16.71,16.958c-0.168,1.713-0.103,3.382,0.157,4.986 c2.475-0.076,4.571-1.968,4.82-4.497C18.708,16.066,23.878,10.818,30.361,10.092z" opacity=".3"/></svg>